<?xml version="1.0" encoding="utf-8"?>
<!-- Generator: Adobe Illustrator 16.0.0, SVG Export Plug-In . SVG Version: 6.00 Build 0)  -->
<!DOCTYPE svg PUBLIC "-//W3C//DTD SVG 1.1//EN" "http://www.w3.org/Graphics/SVG/1.1/DTD/svg11.dtd">
<svg version="1.1" id="Layer_1" xmlns="http://www.w3.org/2000/svg" xmlns:xlink="http://www.w3.org/1999/xlink" x="0px" y="0px"
	 width="385.815px" height="164.246px" viewBox="0 0 385.815 164.246" enable-background="new 0 0 385.815 164.246"
	 xml:space="preserve">
<polygon points="76.333,155.678 76.333,138.781 69.397,155.678 65.488,155.678 58.553,138.918 58.553,155.678 54.065,155.678 
	54.065,131.573 60.253,131.573 67.494,148.98 74.565,131.573 80.957,131.573 80.957,155.678 "/>
<path d="M105.132,150.17h-9.791l-2.006,5.508h-4.964l9.247-24.104h5.439l9.179,24.104h-5.099L105.132,150.17z M96.904,145.887h6.663
	l-3.331-9.111L96.904,145.887z"/>
<g>
	<defs>
		<rect id="SVGID_1_" width="385.815" height="164.246"/>
	</defs>
	<clipPath id="SVGID_2_">
		<use xlink:href="#SVGID_1_"  overflow="visible"/>
	</clipPath>
	<path clip-path="url(#SVGID_2_)" d="M119.633,155.678v-24.104h8.635c6.867,0,11.9,4.453,11.9,12.068s-5.067,12.035-11.934,12.035
		H119.633z M128.064,151.326c3.944,0,7.241-2.447,7.241-7.684c0-5.235-3.263-7.717-7.207-7.717h-3.773v15.4H128.064z"/>
	<polygon clip-path="url(#SVGID_2_)" points="148.769,155.678 148.769,131.573 163.864,131.573 163.864,135.994 153.459,135.994 
		153.459,141.501 162.876,141.501 162.876,145.683 153.459,145.683 153.459,151.258 163.864,151.258 163.864,155.678 	"/>
	<path clip-path="url(#SVGID_2_)" d="M195.073,131.064c6.562,0,12.409,4.793,12.409,12.578c0,7.752-5.848,12.545-12.409,12.545
		c-6.527,0-12.374-4.793-12.374-12.545C182.699,135.857,188.546,131.064,195.073,131.064 M195.073,151.632
		c3.74,0,7.548-2.583,7.548-8.022s-3.808-8.023-7.548-8.023c-3.705,0-7.513,2.584-7.513,8.023S191.368,151.632,195.073,151.632"/>
	<polygon clip-path="url(#SVGID_2_)" points="216.032,155.678 216.032,131.573 231.262,131.573 231.262,136.027 220.724,136.027 
		220.724,141.977 230.106,141.977 230.106,146.295 220.758,146.295 220.758,155.678 	"/>
	<polygon clip-path="url(#SVGID_2_)" points="250.644,155.678 250.644,151.122 263.188,136.027 251.085,136.027 251.085,131.573 
		269.443,131.573 269.443,135.96 256.694,151.19 269.613,151.19 269.613,155.678 	"/>
	<path clip-path="url(#SVGID_2_)" d="M289.23,131.064c6.562,0,12.409,4.793,12.409,12.578c0,7.752-5.847,12.545-12.409,12.545
		c-6.527,0-12.374-4.793-12.374-12.545C276.856,135.857,282.703,131.064,289.23,131.064 M289.23,151.632
		c3.74,0,7.548-2.583,7.548-8.022s-3.808-8.023-7.548-8.023c-3.705,0-7.513,2.584-7.513,8.023S285.525,151.632,289.23,151.632"/>
	<path clip-path="url(#SVGID_2_)" d="M323.384,150.17h-9.791l-2.006,5.508h-4.964l9.247-24.104h5.439l9.179,24.104h-5.1
		L323.384,150.17z M315.156,145.887h6.663l-3.331-9.111L315.156,145.887z"/>
	<path clip-path="url(#SVGID_2_)" d="M240.219,49.333c0,27.142-22.003,49.145-49.146,49.145c-27.142,0-49.146-22.003-49.146-49.145
		c0-27.143,22.004-49.146,49.146-49.146C218.216,0.188,240.219,22.19,240.219,49.333"/>
	<polygon clip-path="url(#SVGID_2_)" points="292.689,67.353 277.337,93.945 385.815,93.945 370.462,67.353 	"/>
	<polygon clip-path="url(#SVGID_2_)" points="359.025,47.544 331.575,0 304.126,47.544 	"/>
	<polygon clip-path="url(#SVGID_2_)" points="76.826,4.722 0,4.722 0,78.414 	"/>
	<polygon clip-path="url(#SVGID_2_)" points="12.395,93.945 89.224,93.945 89.224,20.25 	"/>
</g>
</svg>
